<svg width="60" height="60" viewBox="0 0 60 60" fill="none" xmlns="http://www.w3.org/2000/svg">
<path fill-rule="evenodd" clip-rule="evenodd" d="M48.0175 15.5175C48.4729 15.046 48.7248 14.4145 48.7191 13.759C48.7134 13.1035 48.4505 12.4765 47.987 12.013C47.5235 11.5495 46.8965 11.2866 46.241 11.2809C45.5855 11.2752 44.954 11.5271 44.4825 11.9825L30 26.465L15.5175 11.9825C15.046 11.5271 14.4144 11.2752 13.759 11.2809C13.1035 11.2866 12.4764 11.5495 12.0129 12.013C11.5494 12.4765 11.2865 13.1035 11.2808 13.759C11.2751 14.4145 11.5271 15.046 11.9825 15.5175L26.465 30L11.9825 44.4825C11.7437 44.7132 11.5532 44.989 11.4222 45.294C11.2912 45.599 11.2222 45.9271 11.2193 46.259C11.2164 46.591 11.2797 46.9202 11.4054 47.2274C11.5311 47.5347 11.7167 47.8138 11.9515 48.0485C12.1862 48.2833 12.4653 48.4689 12.7726 48.5946C13.0798 48.7203 13.409 48.7836 13.741 48.7807C14.0729 48.7778 14.401 48.7088 14.706 48.5778C15.011 48.4468 15.2868 48.2563 15.5175 48.0175L30 33.535L44.4825 48.0175C44.954 48.4729 45.5855 48.7249 46.241 48.7192C46.8965 48.7135 47.5235 48.4506 47.987 47.9871C48.4505 47.5236 48.7134 46.8965 48.7191 46.241C48.7248 45.5856 48.4729 44.954 48.0175 44.4825L33.535 30L48.0175 15.5175Z" fill="#F5F5F5"/>
</svg>
