<svg width="61" height="61" viewBox="0 0 61 61" fill="none" xmlns="http://www.w3.org/2000/svg">
<g clip-path="url(#clip0_12_141)">
<path fill-rule="evenodd" clip-rule="evenodd" d="M30.9141 0.412598C47.4831 0.412598 60.9141 14.1824 60.9141 31.1714C60.9141 44.7584 52.3281 56.2845 40.4151 60.3555C38.8941 60.6585 38.3541 59.6979 38.3541 58.8789C38.3541 57.8649 38.3901 54.553 38.3901 50.437C38.3901 47.569 37.4301 45.6972 36.3531 44.7432C43.0341 43.9812 50.0541 41.3799 50.0541 29.5659C50.0541 26.2059 48.8901 23.4641 46.9641 21.3101C47.2761 20.5331 48.3051 17.4045 46.6701 13.1685C46.6701 13.1685 44.1561 12.3443 38.4291 16.3223C36.0321 15.6413 33.4641 15.2986 30.9141 15.2866C28.3641 15.2986 25.7991 15.6413 23.4051 16.3223C17.6721 12.3443 15.1521 13.1685 15.1521 13.1685C13.5231 17.4045 14.5521 20.5331 14.8611 21.3101C12.9441 23.4641 11.7711 26.2059 11.7711 29.5659C11.7711 41.3499 18.7761 43.9911 25.4391 44.7681C24.5811 45.5361 23.8041 46.8909 23.5341 48.8799C21.8241 49.6659 17.4801 51.0262 14.8041 46.3252C14.8041 46.3252 13.2171 43.3698 10.2051 43.1538C10.2051 43.1538 7.28006 43.1149 10.0011 45.0229C10.0011 45.0229 11.9661 45.9679 13.3311 49.5229C13.3311 49.5229 15.0921 55.0128 23.4381 53.1528C23.4531 55.7238 23.4801 58.1469 23.4801 58.8789C23.4801 59.6919 22.9281 60.6434 21.4311 60.3584C9.50905 56.2934 0.914062 44.7614 0.914062 31.1714C0.914062 14.1824 14.3481 0.412598 30.9141 0.412598Z" fill="black"/>
</g>
<defs>
<clipPath id="clip0_12_141">
<rect width="60" height="60" fill="white" transform="translate(0.914062 0.412598)"/>
</clipPath>
</defs>
</svg>
