<svg width="61" height="61" viewBox="0 0 61 61" fill="none" xmlns="http://www.w3.org/2000/svg">
<g clip-path="url(#clip0_14_28)">
<path d="M0.823486 0.588379V60.5884H60.8235V0.588379H0.823486ZM22.4329 43.1392H16.5852V24.4243H22.4329V43.1392ZM19.3508 22.0806H19.304C17.1829 22.0806 15.8118 20.6509 15.8118 18.8345C15.8118 16.9829 17.2297 15.5884 19.386 15.5884C21.5422 15.5884 22.8665 16.9829 22.9133 18.8345C22.925 20.6392 21.554 22.0806 19.3508 22.0806ZM45.8235 43.1392H39.1907V33.4595C39.1907 30.9282 38.1594 29.1938 35.8743 29.1938C34.1282 29.1938 33.1555 30.3657 32.7102 31.4907C32.5461 31.8892 32.5696 32.4517 32.5696 33.0259V43.1392H25.9954C25.9954 43.1392 26.0774 25.9829 25.9954 24.4243H32.5696V27.3657C32.9563 26.0767 35.054 24.2485 38.4055 24.2485C42.5657 24.2485 45.8235 26.9438 45.8235 32.7329V43.1392Z" fill="#FFFAFA"/>
</g>
<defs>
<clipPath id="clip0_14_28">
<rect width="60" height="60" fill="white" transform="translate(0.823486 0.588379)"/>
</clipPath>
</defs>
</svg>
